<mxfile host="app.diagrams.net" modified="2020-07-27T05:25:43.561Z" agent="5.0 (Windows NT 10.0; Win64; x64) AppleWebKit/537.36 (KHTML, like Gecko) Chrome/83.0.4103.61 Safari/537.36" etag="W4Z74SW2dakC6h8kzaVy" version="13.5.3" type="github">
  <diagram id="YtGcmlx5MdhKh6ri9F74" name="第 1 页">
    <mxGraphModel dx="1038" dy="588" grid="1" gridSize="10" guides="1" tooltips="1" connect="1" arrows="1" fold="1" page="1" pageScale="1" pageWidth="827" pageHeight="1169" background="#F1FAEE" math="0" shadow="0">
      <root>
        <mxCell id="0" />
        <mxCell id="1" parent="0" />
        <mxCell id="OGBte0PvkTn54QuSE-R2-2" value="&lt;font style=&quot;font-size: 14px&quot;&gt;&lt;b&gt;用户层服务&lt;br&gt;（Web,H5,APP等）&lt;/b&gt;&lt;/font&gt;" style="rounded=1;whiteSpace=wrap;html=1;sketch=0;strokeColor=#457B9D;fillColor=#A8DADC;fontColor=#1D3557;" vertex="1" parent="1">
          <mxGeometry x="120" y="40" width="400" height="50" as="geometry" />
        </mxCell>
        <mxCell id="OGBte0PvkTn54QuSE-R2-3" value="&lt;font style=&quot;font-size: 14px&quot;&gt;&lt;b&gt;企业网关&lt;/b&gt;&lt;/font&gt;" style="rounded=1;whiteSpace=wrap;html=1;sketch=0;strokeColor=#b85450;fillColor=#f8cecc;" vertex="1" parent="1">
          <mxGeometry x="204" y="160" width="210" height="40" as="geometry" />
        </mxCell>
        <mxCell id="OGBte0PvkTn54QuSE-R2-4" value="&lt;b&gt;&lt;font style=&quot;font-size: 14px&quot;&gt;交易网关服务&lt;br&gt;API网关（REITs ）&lt;/font&gt;&lt;/b&gt;" style="rounded=1;whiteSpace=wrap;html=1;sketch=0;strokeColor=#457B9D;fillColor=#A8DADC;fontColor=#1D3557;" vertex="1" parent="1">
          <mxGeometry x="199" y="260" width="211" height="60" as="geometry" />
        </mxCell>
        <mxCell id="OGBte0PvkTn54QuSE-R2-5" value="&lt;span style=&quot;font-family: &amp;#34;helvetica neue&amp;#34; , &amp;#34;helvetica&amp;#34; , &amp;#34;verdana&amp;#34; , &amp;#34;arial&amp;#34; , sans-serif ; font-size: 14px ; font-style: normal ; letter-spacing: normal ; text-align: left ; text-indent: 0px ; text-transform: none ; word-spacing: 0px ; background-color: rgb(255 , 255 , 255) ; display: inline ; float: none&quot;&gt;&lt;b&gt;&lt;font color=&quot;#ff0000&quot;&gt;API网关&lt;/font&gt;&lt;font color=&quot;#333333&quot;&gt;是一个服务器，是系统的唯一入口。API网关封装了系统内部架构，为每个客户端提供一个定制的API。它可能还具有其它职责，如身份验证、监控、负载均衡、缓存、请求分片与管理、静态响应处理。&lt;/font&gt;&lt;/b&gt;&lt;/span&gt;" style="text;whiteSpace=wrap;html=1;fontColor=#1D3557;" vertex="1" parent="1">
          <mxGeometry x="10" y="890" width="750" height="70" as="geometry" />
        </mxCell>
        <mxCell id="OGBte0PvkTn54QuSE-R2-6" value="&lt;span style=&quot;font-family: &amp;#34;microsoft yahei&amp;#34; ; font-style: normal ; letter-spacing: normal ; text-align: justify ; text-indent: 0px ; text-transform: none ; word-spacing: 0px ; background-color: rgb(255 , 255 , 255) ; display: inline ; float: none&quot;&gt;&lt;font style=&quot;font-size: 14px&quot;&gt;&lt;b&gt;&lt;font color=&quot;#ff0000&quot;&gt;企业级应用网关&lt;/font&gt;&lt;font color=&quot;#333333&quot;&gt;主要功能：全局性流控、统一安全认证、性能支持、负载均衡、IP黑白名单、安全防护。&lt;/font&gt;&lt;/b&gt;&lt;/font&gt;&lt;/span&gt;" style="text;whiteSpace=wrap;html=1;fontColor=#1D3557;" vertex="1" parent="1">
          <mxGeometry x="10" y="860" width="710" height="50" as="geometry" />
        </mxCell>
        <mxCell id="OGBte0PvkTn54QuSE-R2-7" value="" style="endArrow=classic;html=1;strokeColor=#457B9D;fillColor=#A8DADC;fontColor=#1D3557;entryX=0.5;entryY=0;entryDx=0;entryDy=0;exitX=0.473;exitY=1;exitDx=0;exitDy=0;exitPerimeter=0;" edge="1" parent="1" source="OGBte0PvkTn54QuSE-R2-2" target="OGBte0PvkTn54QuSE-R2-3">
          <mxGeometry width="50" height="50" relative="1" as="geometry">
            <mxPoint x="390" y="230" as="sourcePoint" />
            <mxPoint x="440" y="180" as="targetPoint" />
          </mxGeometry>
        </mxCell>
        <mxCell id="OGBte0PvkTn54QuSE-R2-8" value="请求" style="text;html=1;resizable=0;autosize=1;align=center;verticalAlign=middle;points=[];fillColor=none;strokeColor=none;rounded=0;sketch=0;fontColor=#1D3557;" vertex="1" parent="1">
          <mxGeometry x="260" y="110" width="40" height="20" as="geometry" />
        </mxCell>
      </root>
    </mxGraphModel>
  </diagram>
</mxfile>
